<svg xmlns="http://www.w3.org/2000/svg" xmlns:xlink="http://www.w3.org/1999/xlink" width="32" height="32" viewBox="0 0 32 32">
  <defs>
    <clipPath id="clip-in">
      <rect width="32" height="32"/>
    </clipPath>
  </defs>
  <g id="in" clip-path="url(#clip-in)">
    <rect width="32" height="32" fill="#fff"/>
    <rect id="Rectangle_1" data-name="Rectangle 1" width="32" height="32" fill="#0077b5"/>
    <path id="Icon_awesome-linkedin-in" data-name="Icon awesome-linkedin-in" d="M3.917,17.5H.289V5.817H3.917ZM2.1,4.223A2.111,2.111,0,1,1,4.2,2.1,2.119,2.119,0,0,1,2.1,4.223ZM17.5,17.5h-3.62V11.813c0-1.355-.027-3.094-1.886-3.094-1.886,0-2.175,1.473-2.175,3V17.5H6.19V5.817H9.67V7.41H9.72a3.812,3.812,0,0,1,3.433-1.887c3.672,0,4.347,2.418,4.347,5.559V17.5Z" transform="translate(7 6.999)" fill="#fff"/>
  </g>
</svg>
