<svg xmlns="http://www.w3.org/2000/svg" xmlns:xlink="http://www.w3.org/1999/xlink" width="32" height="32" viewBox="0 0 32 32">
  <defs>
    <clipPath id="clip-tw">
      <rect width="32" height="32"/>
    </clipPath>
  </defs>
  <g id="tw" clip-path="url(#clip-tw)">
    <rect width="32" height="32" fill="#fff"/>
    <rect id="Rectangle_1" data-name="Rectangle 1" width="32" height="32" fill="#1da1f2"/>
    <path id="Icon_awesome-twitter" data-name="Icon awesome-twitter" d="M16.913,7.2c.012.167.012.335.012.5A10.917,10.917,0,0,1,5.933,18.691,10.918,10.918,0,0,1,0,16.956,7.992,7.992,0,0,0,.933,17a7.737,7.737,0,0,0,4.8-1.651,3.87,3.87,0,0,1-3.612-2.679,4.872,4.872,0,0,0,.73.06A4.086,4.086,0,0,0,3.863,12.6a3.864,3.864,0,0,1-3.1-3.792V8.763a3.891,3.891,0,0,0,1.746.49,3.869,3.869,0,0,1-1.2-5.167A10.981,10.981,0,0,0,9.282,8.129a4.361,4.361,0,0,1-.1-.885A3.867,3.867,0,0,1,15.872,4.6a7.606,7.606,0,0,0,2.452-.933,3.853,3.853,0,0,1-1.7,2.129,7.745,7.745,0,0,0,2.225-.6,8.3,8.3,0,0,1-1.938,2Z" transform="translate(7 4.619)" fill="#fff"/>
  </g>
</svg>
