<svg xmlns="http://www.w3.org/2000/svg" xmlns:xlink="http://www.w3.org/1999/xlink" width="32" height="32" viewBox="0 0 32 32">
  <defs>
    <clipPath id="clip-wap">
      <rect width="32" height="32"/>
    </clipPath>
  </defs>
  <g id="wap" clip-path="url(#clip-wap)">
    <rect width="32" height="32" fill="#fff"/>
    <rect id="Rectangle_1" data-name="Rectangle 1" width="32" height="32" fill="#25d366"/>
    <path id="Icon_awesome-whatsapp" data-name="Icon awesome-whatsapp" d="M21.4,5.907A12.475,12.475,0,0,0,1.77,20.956L0,27.417l6.612-1.736a12.433,12.433,0,0,0,5.96,1.517h.006A12.591,12.591,0,0,0,25.167,14.727,12.52,12.52,0,0,0,21.4,5.907ZM12.578,25.1A10.347,10.347,0,0,1,7.3,23.653l-.376-.225L3,24.456l1.045-3.826L3.8,20.237A10.385,10.385,0,1,1,23.06,14.727,10.481,10.481,0,0,1,12.578,25.1Zm5.685-7.763c-.309-.157-1.843-.91-2.129-1.011s-.494-.157-.7.157-.8,1.011-.989,1.225-.365.236-.674.079a8.482,8.482,0,0,1-4.241-3.708c-.32-.551.32-.511.916-1.7a.577.577,0,0,0-.028-.545c-.079-.157-.7-1.691-.961-2.314-.253-.607-.511-.522-.7-.534s-.388-.011-.6-.011a1.154,1.154,0,0,0-.831.388,3.5,3.5,0,0,0-1.09,2.6,6.1,6.1,0,0,0,1.27,3.224,13.925,13.925,0,0,0,5.325,4.707c1.977.854,2.753.927,3.741.781a3.192,3.192,0,0,0,2.1-1.483,2.606,2.606,0,0,0,.18-1.483C18.779,17.563,18.572,17.485,18.263,17.333Z" transform="translate(3.167 1.167)" fill="#fff"/>
  </g>
</svg>
